# xmcd
#
# Track frame offsets:
#	150
#	29335
#	44790
#	102123
#	124024
#	154899
#	189851
#	231853
#
# Disc length: 3472 seconds
#
# Revision: 1
# Processed by: cddbd v1.4PL0 Copyright (c) Steve Scherf et al.
# Submitted via: EasyCDDAExtractor 6.0.0.1
#
DISCID=630d8e08
DTITLE=T J Wheeler and the Smokers - Blues Boogaloo
DYEAR=2003
DGENRE=Blues
TTITLE0=Zydeco Boogaloo
TTITLE1=Dreams of Diaspora
TTITLE2=Mojo Hanna
TTITLE3=Divided We Stand
TTITLE4=Motherless Children Have a Hard Time
TTITLE5=Organ Grinder Swing
TTITLE6=Blackjack
TTITLE7=Up the Line
EXTD=
EXTT0=
EXTT1=
EXTT2=
EXTT3=
EXTT4=
EXTT5=
EXTT6=
EXTT7=
PLAYORDER=
